# xmcd
#
# Track frame offsets: 
#        150
#        17597
#        34362
#        55892
#        74272
#        96147
#        114787
#        133260
#        155320
#        172055
#
# Disc length: 2499 seconds
#
# Revision: 6
# Processed by: cddbd v1.5.2PL0 Copyright (c) Steve Scherf et al.
# Submitted via: ExactAudioCopy v0.95a5
#
DISCID=8209c10a
DTITLE=Bobby Caldwell - Where Is Love
DYEAR=1993
DGENRE=Rock
TTITLE0=Once Upon A Time
TTITLE1=Never Take A Chance
TTITLE2=Love Lite
TTITLE3=Carrie Anne (You'll Never Know)
TTITLE4=One Love
TTITLE5=Where Is Love
TTITLE6=Trying Times
TTITLE7=Rina
TTITLE8=I Get A Kick Out Of You
TTITLE9=Don't Worry 'Bout Me
EXTD=
EXTT0=
EXTT1=
EXTT2=
EXTT3=
EXTT4=
EXTT5=
EXTT6=
EXTT7=
EXTT8=
EXTT9=
PLAYORDER=
